<svg xmlns="http://www.w3.org/2000/svg" width="1088" height="1445" viewBox="0 0 1088 1445">
  <defs>
    <pattern id="grid" width="90.67" height="90" patternUnits="userSpaceOnUse">
      <path d="M0 0H90.67M0 0V90" fill="none" stroke="#14130F" stroke-opacity="0.07" stroke-width="1"/>
    </pattern>
  </defs>

  <rect width="1088" height="1445" fill="#EFECE6"/>
  <rect width="1088" height="790" fill="url(#grid)"/>

  <!-- Measured growth: a plotted series climbing towards the mark. -->
  <g fill="#14130F">
    <rect x="80"  y="692" width="50" height="58"/>
    <rect x="146" y="660" width="50" height="90"/>
    <rect x="212" y="616" width="50" height="134"/>
    <rect x="278" y="570" width="50" height="180"/>
    <rect x="344" y="504" width="50" height="246"/>
    <rect x="410" y="420" width="50" height="330"/>
    <rect x="476" y="306" width="50" height="444"/>
    <rect x="542" y="174" width="50" height="576"/>
  </g>
  <path d="M80 762H592" stroke="#14130F" stroke-opacity="0.35" stroke-width="3"/>

  <!-- The in/fin slash, blown up and cropped by the frame. -->
  <path d="M950.6 -40H1029.9L759.3 790H680Z" fill="#14130F"/>

  <rect y="790" width="1088" height="655" fill="#14130F"/>
  <path d="M0 790H1088" stroke="#B5AEA2" stroke-opacity="0.45" stroke-width="2"/>
</svg>
